<?xml version="1.0" encoding="utf-8"?>
<!-- Generator: Adobe Illustrator 16.2.0, SVG Export Plug-In . SVG Version: 6.00 Build 0)  -->
<!DOCTYPE svg PUBLIC "-//W3C//DTD SVG 1.1//EN" "http://www.w3.org/Graphics/SVG/1.1/DTD/svg11.dtd">
<svg version="1.1" id="Слой_1" xmlns="http://www.w3.org/2000/svg" xmlns:xlink="http://www.w3.org/1999/xlink" x="0px" y="0px"
	 width="708.66px" height="88.76px" viewBox="0 0 708.66 88.76" enable-background="new 0 0 708.66 88.76" xml:space="preserve">
<g>
	<polygon fill="#163E6C" points="45.516,61.43 58.531,28.034 86.988,28.034 80.48,44.733 115.593,44.733 132.889,0.35 132.889,0.35 
		132.889,0.35 9.984,0.35 23.434,28.034 40.715,28.034 18.258,41.274 -0.386,89.113 -0.386,89.113 98.372,89.113 109.161,61.43 	"/>
	<polygon fill="#163E6C" points="566.937,0.35 551.548,39.839 523.091,39.839 523.091,39.839 538.48,0.35 503.367,0.35 
		468.775,89.113 503.888,89.113 511.347,69.975 511.347,69.975 545.813,54.557 532.345,89.113 567.458,89.113 602.05,0.35 	"/>
	<path fill="#163E6C" d="M209.792,0.35l-47.016,39.936L178.34,0.35h-35.113l-34.592,88.763h35.113l46.875-39.572L175.2,89.113
		h35.113l29.335-75.273l9.2,14.193h22.13L220.5,89.113h40.435l50.478-61.08h11.426l-23.803,61.08h35.113l29.501-75.699l9.477,14.619
		h22.13l-50.478,61.08h40.435l24.005-29.045l18.65,17.357l-4.555,11.688h35.112L493.02,0.35H209.792z M438.947,48.998h-20.581
		l17.325-20.964h11.426L438.947,48.998z"/>
	<polygon fill="#163E6C" points="697.487,28.034 708.275,0.35 609.593,0.35 598.805,28.034 646.422,28.034 623.965,41.274 
		616.109,61.43 603.822,61.43 593.034,89.113 654.067,89.113 664.856,61.43 651.223,61.43 664.237,28.034 	"/>
</g>
</svg>
